<?xml version="1.0" standalone="no"?>
<!DOCTYPE svg PUBLIC "-//W3C//DTD SVG 20010904//EN"
 "http://www.w3.org/TR/2001/REC-SVG-20010904/DTD/svg10.dtd">
<svg version="1.0" xmlns="http://www.w3.org/2000/svg"
 width="200.000000pt" height="200.000000pt" viewBox="0 0 200.000000 200.000000"
 preserveAspectRatio="xMidYMid meet">

<g transform="translate(0.000000,200.000000) scale(0.100000,-0.100000)"
fill="#000000" stroke="none">
<path d="M232 1113 l3 -298 34 -3 c19 -2 44 -1 57 2 l24 6 0 235 0 235 160 0
160 0 0 60 0 60 -220 0 -220 0 2 -297z"/>
<path d="M891 1388 c-5 -13 -61 -144 -125 -293 -64 -148 -116 -273 -116 -276
0 -6 97 -6 121 0 4 0 46 94 94 207 48 113 91 202 96 197 4 -4 44 -93 89 -198
46 -104 87 -195 92 -202 11 -14 105 -15 114 -2 3 5 -50 140 -117 299 l-123
290 -58 0 c-51 0 -60 -3 -67 -22z"/>
<path d="M1320 1110 l0 -301 218 3 217 3 3 57 3 57 -163 3 -163 3 -3 178 -2
177 165 0 165 0 0 60 0 60 -220 0 -220 0 0 -300z"/>
<path d="M470 1110 l0 -61 98 3 97 3 3 58 3 57 -101 0 -100 0 0 -60z"/>
<path d="M1552 1113 l3 -58 100 0 100 0 3 58 3 57 -106 0 -106 0 3 -57z"/>
<path d="M230 710 c0 -5 9 -10 20 -10 18 0 20 -7 20 -55 0 -42 3 -55 15 -55
12 0 15 13 15 55 0 48 2 55 20 55 11 0 20 5 20 10 0 6 -25 10 -55 10 -30 0
-55 -4 -55 -10z"/>
<path d="M380 655 l0 -65 45 0 c33 0 45 4 45 15 0 10 -10 15 -30 15 -16 0 -30
5 -30 10 0 6 11 10 25 10 16 0 25 6 25 15 0 9 -9 15 -25 15 -16 0 -25 6 -25
15 0 10 10 15 30 15 17 0 30 5 30 10 0 6 -20 10 -45 10 l-45 0 0 -65z"/>
<path d="M526 698 c-22 -31 -20 -64 4 -88 24 -24 72 -26 90 -5 14 16 10 18
-37 15 -27 -1 -33 3 -39 26 -8 31 19 59 46 48 27 -10 35 -9 35 6 0 10 -13 16
-42 18 -33 2 -44 -1 -57 -20z"/>
<path d="M680 655 c0 -37 4 -65 10 -65 6 0 10 11 10 25 0 21 5 25 30 25 25 0
30 -4 30 -25 0 -16 6 -25 15 -25 12 0 15 14 15 65 0 51 -3 65 -15 65 -9 0 -15
-9 -15 -25 0 -21 -5 -25 -30 -25 -25 0 -30 4 -30 25 0 14 -4 25 -10 25 -6 0
-10 -28 -10 -65z"/>
<path d="M840 655 c0 -50 3 -65 14 -65 10 0 16 13 18 38 l3 37 25 -37 c14 -21
33 -38 43 -38 14 0 17 10 17 65 0 50 -3 65 -14 65 -10 0 -16 -13 -18 -42 l-3
-42 -29 42 c-42 61 -56 56 -56 -23z"/>
<path d="M1027 708 c-27 -22 -31 -61 -7 -91 56 -70 156 7 104 81 -17 25 -69
30 -97 10z m71 -20 c18 -18 14 -56 -7 -68 -39 -21 -73 19 -51 60 12 22 40 26
58 8z"/>
<path d="M1180 655 l0 -65 45 0 c33 0 45 4 45 15 0 10 -10 15 -30 15 -29 0
-30 1 -30 50 0 38 -4 50 -15 50 -12 0 -15 -14 -15 -65z"/>
<path d="M1317 702 c-38 -42 -6 -112 51 -112 63 0 90 88 38 122 -21 14 -73 8
-89 -10z m77 -18 c21 -21 20 -37 -3 -58 -38 -34 -85 26 -49 62 16 16 33 15 52
-4z"/>
<path d="M1491 701 c-52 -52 12 -132 83 -105 18 7 23 64 6 64 -9 0 -13 -13 -7
-26 1 -3 -6 -10 -16 -16 -14 -7 -23 -5 -38 8 -34 30 -17 69 31 69 43 0 42 19
-2 23 -27 2 -43 -3 -57 -17z"/>
<path d="M1639 687 c11 -18 21 -48 23 -65 3 -36 28 -45 28 -9 0 12 11 41 25
65 22 39 23 42 5 42 -10 0 -22 -9 -25 -20 -3 -11 -9 -20 -13 -20 -4 0 -13 9
-20 20 -7 11 -19 20 -28 20 -13 0 -13 -5 5 -33z"/>
</g>
</svg>
